<svg
  version="1.1"
  xmlns="http://www.w3.org/2000/svg"
  xmlns:xlink="http://www.w3.org/1999/xlink"
  x="0px"
  y="0px"
  viewBox="0 0 100 100"
  xml:space="preserve"
>
  <!-- <style type="text/css">
    .st0 {
      display: none;
    }
    .st1 {
      display: inline;
      fill: #fff;
    }
    .st2 {
      fill: #fff;
    }
    .st3 {
      fill: none;
    }
  </style> -->
  <g id="Version_Thin" class="st0">
    <path
      fill="#fff"
      d="M50,0.8C22.8,0.8,0.8,22.8,0.8,50s22,49.2,49.2,49.2s49.2-22,49.2-49.2S77.2,0.8,50,0.8z M50,2.7
		c8.4,0,16.2,2.2,23.1,6c-11.7-1.1-23.5,4.5-29.8,15.2c-0.2,0.3-0.4,0.6-0.5,1c-0.8-0.8-1.7-1.6-2.6-2.3c-7.9-5.7-17.9-6.6-26.3-3.1
		C22.5,9.2,35.5,2.7,50,2.7z M2.7,50c0-8.9,2.5-17.2,6.7-24.4c8.2-6.4,20-7,28.9-0.5c1.1,0.8,2.1,1.7,3.1,2.7
		c-0.9,2.3-1.5,4.7-1.8,7.1c-1.1-1.8-2.5-3.5-4.3-4.8c-3.8-2.8-8.4-3.9-13.1-3.1c-4.6,0.7-8.7,3.2-11.5,7c-3.1,4.2-4.3,9.4-3.5,14.5
		c0.8,5.2,3.6,9.7,7.8,12.7c3.9,2.8,8.3,4.1,12.8,4.1c3.8,0,7.6-1,11-3C46.1,68,49.1,74.1,47.7,81c-0.9,4.6-3.3,8.2-6.9,10.1
		c-3.7,2-8.5,2.1-13.7,0.3C12.6,83.4,2.7,67.8,2.7,50z M52.8,66.6L52.8,66.6c-0.8,1.1-1.5,2.2-2,3.3c-1.1-1.6-1.8-3.7-1.2-5.3
		c0.6-1.6,1.8-2.9,2.4-3.4c0.4,0.3,0.8,0.5,1.2,0.8c0.9,0.5,1.8,1,2.8,1.4C54.8,64.3,53.8,65.4,52.8,66.6z M43,54.7
		c-2.9,4-7.3,6.7-12.2,7.5s-9.9-0.4-13.9-3.3c-3.6-2.6-5.9-6.4-6.6-10.7c-0.7-4.3,0.4-8.7,2.9-12.3c2.3-3.1,5.6-5.2,9.5-5.8
		c3.8-0.6,7.7,0.3,10.8,2.6c5.7,4.1,6.9,12.1,2.8,17.8c-1.8,2.5-4.4,4.1-7.4,4.5c-2.9,0.4-5.8-0.3-8.1-2c-1.9-1.5-3.2-3.6-3.5-5.9
		c-0.3-2.4,0.3-4.8,1.9-6.9l-2.4-1.8c-2.1,2.7-2.9,6-2.5,9.1c0.4,3.2,2.1,6,4.7,7.9c3,2.2,6.7,3.2,10.4,2.6c3.8-0.6,7.2-2.6,9.5-5.8
		c1.1-1.5,1.8-3.1,2.3-4.7c0.7,2,1.7,4,2.9,5.8C43.7,53.7,43.4,54.2,43,54.7z M45.5,56.5c0.2-0.2,0.3-0.4,0.4-0.6
		c0.9,1.1,2,2.2,3.1,3.1c-0.8,1.2-2.2,3.3-2.8,3.3c-0.5,0-1.9-1.3-3.3-2.5l-0.2-0.2C43.7,58.7,44.7,57.7,45.5,56.5z M73.4,91.1
		c-4.2,1.7-8.6,1.8-12.6,0.1c-4.4-1.9-7.4-5.7-8-10.1c-0.8-5.6,0-9.5,2.6-12.7c0.1-0.1-0.1,0.1,0,0c0.8-1,2.1-2.2,3.3-3
		c1.7-1.1,3.7-1.9,5.8-2.1c3.4-0.3,6.9,0.7,9.4,3c2.1,1.8,3.4,4.3,3.5,7.1c0.2,2.8-0.7,5.4-2.5,7.5c-3.1,3.6-8.5,4-12.1,0.8
		c-2.9-2.6-3.3-7-0.7-10c1-1.2,2.5-1.9,4.1-2c1.5-0.1,2.9,0.4,4,1.4c1.2,1.1,1.6,3.7,0,6l2.5,1.7c2.3-3.3,2.1-7.6-0.4-10
		c-1.7-1.6-3.9-2.3-6.3-2.2c-2.4,0.1-4.7,1.3-6.3,3.1c-3.7,4.2-3.2,10.6,1,14.3c2.1,1.9,4.8,2.9,7.6,2.9c0.3,0,0.6,0,0.8,0
		c3.1-0.2,5.9-1.6,8-4c2.4-2.7,3.5-6.2,3.3-9.8c-0.2-3.6-1.9-6.9-4.6-9.2c-0.1-0.1-0.3-0.2-0.4-0.3c5-2.1,9.1-5.6,11.9-10.4
		c3-5.2,3.9-11.2,2.4-17s-5.2-10.6-10.3-13.7c-4.6-2.7-10-3.5-15.2-2.1s-9.6,4.6-12.3,9.3c-2.5,4.2-3.1,9.1-1.9,13.9
		c1.2,4.6,4.2,8.5,8.3,10.9c6.4,3.7,16.3,2.9,21.8-5.8L77.6,47c-4.6,7.1-12.4,7.8-17.7,4.7c-3.4-2-5.9-5.2-6.9-9
		c-1-3.9-0.5-8,1.6-11.5c2.3-3.9,6-6.7,10.4-7.9c4.4-1.1,9-0.5,12.9,1.8c4.5,2.6,7.6,6.8,8.9,11.8s0.6,10.2-2,14.7
		c-2.8,4.8-7.3,8.3-12.6,9.9c-2.5-1.1-5.2-1.6-8-1.3c-1.7,0.2-3.3,0.6-4.8,1.3c-1.6-0.5-3.1-1.1-4.6-2c-5.7-3.4-9.8-8.7-11.5-15.1
		s-0.7-13.1,2.6-18.8c7-11.9,21.5-16.8,34-12.1C90.5,22,97.3,35.2,97.3,50C97.3,67.6,87.7,83,73.4,91.1z"
    />
  </g>
  <g id="Version_Thick">
    <path
      fill="#fff"
      d="M50,0C22.4,0,0,22.4,0,50s22.4,50,50,50s50-22.4,50-50S77.6,0,50,0z M72.1,91.6c-3.8,1.2-7.7,1.2-11.3-0.4
		c-4.4-1.9-7.4-5.7-8-10.1c-0.8-5.6,0-9.5,2.6-12.7c0.8-1,2.1-2.2,3.3-3c1.7-1.1,3.7-1.9,5.8-2.1c3.4-0.3,6.9,0.7,9.4,3
		c2.1,1.8,3.4,4.3,3.5,7.1c0.2,2.8-0.7,5.4-2.5,7.5c-3.1,3.6-8.5,4-12.1,0.8c-2.9-2.6-3.3-7-0.7-10c1-1.2,2.5-1.9,4.1-2
		c1.5-0.1,2.9,0.4,4,1.4c1.2,1.1,1.6,3.7,0,6l2.5,1.7c2.3-3.3,2.1-7.6-0.4-10c-1.7-1.6-3.9-2.3-6.3-2.2c-2.4,0.1-4.7,1.3-6.3,3.1
		c-3.7,4.2-3.2,10.6,1,14.3c2.1,1.9,4.8,2.9,7.6,2.9c0.3,0,0.6,0,0.8,0c3.1-0.2,5.9-1.6,8-4c2.4-2.7,3.5-6.2,3.3-9.8
		c-0.2-3.6-1.9-6.9-4.6-9.2c-0.1-0.1-0.3-0.2-0.4-0.3c5-2.1,9.1-5.6,11.9-10.4c3-5.2,3.9-11.2,2.4-17s-5.2-10.6-10.3-13.7
		c-4.6-2.7-10-3.5-15.2-2.1c-5.2,1.4-9.6,4.6-12.3,9.3c-2.5,4.2-3.1,9.1-1.9,13.9c1.2,4.6,4.2,8.5,8.3,10.9
		c6.4,3.7,16.3,2.9,21.8-5.8L77.6,47c-4.6,7.1-12.4,7.8-17.7,4.7c-3.4-2-5.9-5.2-6.9-9c-1-3.9-0.5-8,1.6-11.5
		c2.3-3.9,6-6.7,10.4-7.9c4.4-1.1,9-0.5,12.9,1.8c4.5,2.6,7.6,6.8,8.9,11.8s0.6,10.2-2,14.7c-2.8,4.8-7.3,8.3-12.6,9.9
		c-2.5-1.1-5.2-1.6-8-1.3c-1.7,0.2-3.3,0.6-4.8,1.3c-1.6-0.5-3.1-1.1-4.6-2c-5.7-3.4-9.8-8.7-11.5-15.1c-1.7-6.4-0.7-13.1,2.6-18.8
		c6.9-11.8,21.3-16.7,33.7-12.2C90.2,22,97.1,35.2,97.1,50C97.1,68,87,83.6,72.1,91.6z M50.8,69.9c-1.1-1.6-1.8-3.7-1.2-5.3
		c0.6-1.6,1.8-2.9,2.4-3.4c0.4,0.3,0.8,0.5,1.2,0.8c0.9,0.5,1.8,1,2.8,1.4c-1.2,0.9-2.2,2-3.2,3.2C52,67.7,51.3,68.8,50.8,69.9z
		 M16.8,38.4c-2.1,2.7-2.9,6-2.5,9.1c0.4,3.2,2.1,6,4.7,7.9c3,2.2,6.7,3.2,10.4,2.6c3.8-0.6,7.2-2.6,9.5-5.8
		c1.1-1.5,1.8-3.1,2.3-4.7c0.7,2,1.7,4,2.9,5.8c-0.4,0.4-0.7,0.9-1.1,1.4c-2.9,4-7.3,6.7-12.2,7.5c-4.9,0.8-9.9-0.4-13.9-3.3
		c-3.6-2.6-5.9-6.4-6.6-10.7s0.4-8.7,2.9-12.3c2.3-3.1,5.6-5.2,9.5-5.8c3.8-0.6,7.7,0.3,10.8,2.6c5.7,4.1,6.9,12.1,2.8,17.8
		c-1.8,2.5-4.4,4.1-7.4,4.5c-2.9,0.4-5.8-0.3-8.1-2c-1.9-1.5-3.2-3.6-3.5-5.9c-0.3-2.4,0.3-4.8,1.9-6.9L16.8,38.4z M45.5,56.5
		c0.2-0.2,0.3-0.4,0.4-0.6c0.9,1.1,2,2.2,3.1,3.1c-0.8,1.2-2.2,3.3-2.8,3.3c-0.5,0-1.9-1.3-3.3-2.5l-0.2-0.2
		C43.7,58.7,44.7,57.7,45.5,56.5z M40.2,22.6C32.4,17,22.6,16,14.3,19.4C22.9,9.3,35.7,2.9,50,2.9c8.2,0,15.8,2.1,22.5,5.7
		c-11.5-0.9-23,4.7-29.2,15.2c-0.2,0.3-0.4,0.6-0.5,1C42,24.1,41.1,23.3,40.2,22.6z M2.9,50c0-9.1,2.6-17.6,7.1-24.8
		c8.2-6,19.6-6.4,28.3-0.1c1.1,0.8,2.1,1.7,3.1,2.7c-0.9,2.3-1.5,4.7-1.8,7.1c-1.1-1.8-2.5-3.5-4.3-4.8c-3.8-2.8-8.4-3.9-13.1-3.1
		c-4.6,0.7-8.7,3.2-11.5,7c-3.1,4.2-4.3,9.4-3.5,14.5c0.8,5.2,3.6,9.7,7.8,12.7c3.9,2.8,8.3,4.1,12.8,4.1c3.8,0,7.6-1,11-3
		C46.1,68,49.1,74.1,47.7,81c-0.9,4.6-3.3,8.2-6.9,10.1c-3.4,1.8-7.8,2.1-12.5,0.7C13.2,83.9,2.9,68.2,2.9,50z"
    />
  </g>
  <g id="Border">
    <rect x="0" y="0" fill="none" width="100" height="100" />
  </g>
</svg>
